<mxfile host="app.diagrams.net" agent="Mozilla/5.0 (Windows NT 10.0; Win64; x64; rv:140.0) Gecko/20100101 Firefox/140.0" version="28.0.6" pages="2">
  <diagram name="Pagina-1" id="pbFFbsPUBwS1l44IJEz7">
    <mxGraphModel dx="1139" dy="554" grid="1" gridSize="10" guides="1" tooltips="1" connect="1" arrows="1" fold="1" page="1" pageScale="1" pageWidth="827" pageHeight="1169" math="0" shadow="0">
      <root>
        <mxCell id="0" />
        <mxCell id="1" parent="0" />
        <mxCell id="BYqp3WasdiuvY2_ClfZY-16" style="edgeStyle=orthogonalEdgeStyle;rounded=0;orthogonalLoop=1;jettySize=auto;html=1;exitX=0.5;exitY=0;exitDx=0;exitDy=0;entryX=0;entryY=0.5;entryDx=0;entryDy=0;" edge="1" parent="1" source="BYqp3WasdiuvY2_ClfZY-1" target="BYqp3WasdiuvY2_ClfZY-6">
          <mxGeometry relative="1" as="geometry" />
        </mxCell>
        <mxCell id="BYqp3WasdiuvY2_ClfZY-1" value="" style="ellipse;whiteSpace=wrap;html=1;aspect=fixed;" vertex="1" parent="1">
          <mxGeometry x="120" y="200" width="80" height="80" as="geometry" />
        </mxCell>
        <mxCell id="BYqp3WasdiuvY2_ClfZY-3" value="sonarService" style="rounded=1;whiteSpace=wrap;html=1;" vertex="1" parent="1">
          <mxGeometry x="160" y="250" width="60" height="20" as="geometry" />
        </mxCell>
        <mxCell id="BYqp3WasdiuvY2_ClfZY-4" value="" style="ellipse;whiteSpace=wrap;html=1;aspect=fixed;" vertex="1" parent="1">
          <mxGeometry x="560" y="200" width="80" height="80" as="geometry" />
        </mxCell>
        <mxCell id="BYqp3WasdiuvY2_ClfZY-5" value="cargoService" style="rounded=1;whiteSpace=wrap;html=1;" vertex="1" parent="1">
          <mxGeometry x="600" y="250" width="60" height="20" as="geometry" />
        </mxCell>
        <mxCell id="BYqp3WasdiuvY2_ClfZY-17" style="edgeStyle=orthogonalEdgeStyle;rounded=0;orthogonalLoop=1;jettySize=auto;html=1;exitX=0;exitY=1;exitDx=0;exitDy=0;entryX=1;entryY=0;entryDx=0;entryDy=0;" edge="1" parent="1" source="BYqp3WasdiuvY2_ClfZY-6" target="BYqp3WasdiuvY2_ClfZY-1">
          <mxGeometry relative="1" as="geometry" />
        </mxCell>
        <mxCell id="BYqp3WasdiuvY2_ClfZY-6" value="" style="ellipse;whiteSpace=wrap;html=1;aspect=fixed;" vertex="1" parent="1">
          <mxGeometry x="330" y="40" width="80" height="80" as="geometry" />
        </mxCell>
        <mxCell id="BYqp3WasdiuvY2_ClfZY-7" value="productservice" style="rounded=1;whiteSpace=wrap;html=1;" vertex="1" parent="1">
          <mxGeometry x="370" y="90" width="60" height="20" as="geometry" />
        </mxCell>
        <mxCell id="BYqp3WasdiuvY2_ClfZY-8" value="" style="ellipse;whiteSpace=wrap;html=1;aspect=fixed;" vertex="1" parent="1">
          <mxGeometry x="460" y="390" width="80" height="80" as="geometry" />
        </mxCell>
        <mxCell id="BYqp3WasdiuvY2_ClfZY-9" value="robotControl" style="rounded=1;whiteSpace=wrap;html=1;" vertex="1" parent="1">
          <mxGeometry x="500" y="440" width="60" height="20" as="geometry" />
        </mxCell>
        <mxCell id="BYqp3WasdiuvY2_ClfZY-10" value="" style="ellipse;whiteSpace=wrap;html=1;aspect=fixed;" vertex="1" parent="1">
          <mxGeometry x="220" y="390" width="80" height="80" as="geometry" />
        </mxCell>
        <mxCell id="BYqp3WasdiuvY2_ClfZY-11" value="cargoHold" style="rounded=1;whiteSpace=wrap;html=1;" vertex="1" parent="1">
          <mxGeometry x="260" y="440" width="60" height="20" as="geometry" />
        </mxCell>
        <mxCell id="BYqp3WasdiuvY2_ClfZY-13" value="" style="ellipse;whiteSpace=wrap;html=1;aspect=fixed;" vertex="1" parent="1">
          <mxGeometry x="680" y="400" width="80" height="80" as="geometry" />
        </mxCell>
        <mxCell id="BYqp3WasdiuvY2_ClfZY-14" value="gui" style="rounded=1;whiteSpace=wrap;html=1;" vertex="1" parent="1">
          <mxGeometry x="720" y="450" width="60" height="20" as="geometry" />
        </mxCell>
      </root>
    </mxGraphModel>
  </diagram>
  <diagram id="WpeP58HMXWtNzsFdZIPq" name="ProdottoDisponibile">
    <mxGraphModel dx="932" dy="454" grid="1" gridSize="10" guides="1" tooltips="1" connect="1" arrows="1" fold="1" page="1" pageScale="1" pageWidth="827" pageHeight="1169" math="0" shadow="0">
      <root>
        <mxCell id="0" />
        <mxCell id="1" parent="0" />
        <mxCell id="WGEKUS04sTv0rBj9BLx_-32" style="edgeStyle=orthogonalEdgeStyle;rounded=0;orthogonalLoop=1;jettySize=auto;html=1;exitX=1;exitY=0.5;exitDx=0;exitDy=0;entryX=0;entryY=0.5;entryDx=0;entryDy=0;" edge="1" parent="1" source="WGEKUS04sTv0rBj9BLx_-2" target="WGEKUS04sTv0rBj9BLx_-4">
          <mxGeometry relative="1" as="geometry" />
        </mxCell>
        <mxCell id="WGEKUS04sTv0rBj9BLx_-2" value="" style="ellipse;whiteSpace=wrap;html=1;aspect=fixed;" vertex="1" parent="1">
          <mxGeometry x="170" y="240" width="80" height="80" as="geometry" />
        </mxCell>
        <mxCell id="WGEKUS04sTv0rBj9BLx_-3" value="sonarService" style="rounded=1;whiteSpace=wrap;html=1;" vertex="1" parent="1">
          <mxGeometry x="210" y="290" width="60" height="20" as="geometry" />
        </mxCell>
        <mxCell id="WGEKUS04sTv0rBj9BLx_-22" style="edgeStyle=orthogonalEdgeStyle;rounded=0;orthogonalLoop=1;jettySize=auto;html=1;exitX=1;exitY=0;exitDx=0;exitDy=0;entryX=0.971;entryY=0.291;entryDx=0;entryDy=0;entryPerimeter=0;" edge="1" parent="1" source="WGEKUS04sTv0rBj9BLx_-4" target="WGEKUS04sTv0rBj9BLx_-7">
          <mxGeometry relative="1" as="geometry">
            <mxPoint x="678" y="80" as="targetPoint" />
            <Array as="points">
              <mxPoint x="678" y="166" />
              <mxPoint x="679" y="103" />
            </Array>
          </mxGeometry>
        </mxCell>
        <mxCell id="WGEKUS04sTv0rBj9BLx_-24" style="edgeStyle=orthogonalEdgeStyle;rounded=0;orthogonalLoop=1;jettySize=auto;html=1;exitX=0.5;exitY=1;exitDx=0;exitDy=0;entryX=0.5;entryY=0;entryDx=0;entryDy=0;" edge="1" parent="1" source="WGEKUS04sTv0rBj9BLx_-4" target="WGEKUS04sTv0rBj9BLx_-11">
          <mxGeometry relative="1" as="geometry" />
        </mxCell>
        <mxCell id="WGEKUS04sTv0rBj9BLx_-34" style="edgeStyle=orthogonalEdgeStyle;rounded=0;orthogonalLoop=1;jettySize=auto;html=1;exitX=0;exitY=1;exitDx=0;exitDy=0;entryX=0.5;entryY=0;entryDx=0;entryDy=0;" edge="1" parent="1" source="WGEKUS04sTv0rBj9BLx_-4" target="WGEKUS04sTv0rBj9BLx_-9">
          <mxGeometry relative="1" as="geometry" />
        </mxCell>
        <mxCell id="f1D6WuZxMdPs2gHAFTNx-3" style="edgeStyle=orthogonalEdgeStyle;rounded=0;orthogonalLoop=1;jettySize=auto;html=1;exitX=1;exitY=0.5;exitDx=0;exitDy=0;entryX=0;entryY=0.5;entryDx=0;entryDy=0;" edge="1" parent="1" source="WGEKUS04sTv0rBj9BLx_-4" target="f1D6WuZxMdPs2gHAFTNx-1">
          <mxGeometry relative="1" as="geometry" />
        </mxCell>
        <mxCell id="WGEKUS04sTv0rBj9BLx_-4" value="" style="ellipse;whiteSpace=wrap;html=1;aspect=fixed;" vertex="1" parent="1">
          <mxGeometry x="610" y="240" width="80" height="80" as="geometry" />
        </mxCell>
        <mxCell id="WGEKUS04sTv0rBj9BLx_-5" value="cargoService" style="rounded=1;whiteSpace=wrap;html=1;" vertex="1" parent="1">
          <mxGeometry x="650" y="290" width="60" height="20" as="geometry" />
        </mxCell>
        <mxCell id="WGEKUS04sTv0rBj9BLx_-17" style="edgeStyle=orthogonalEdgeStyle;rounded=0;orthogonalLoop=1;jettySize=auto;html=1;exitX=1;exitY=0.5;exitDx=0;exitDy=0;entryX=0.5;entryY=0;entryDx=0;entryDy=0;" edge="1" parent="1" source="WGEKUS04sTv0rBj9BLx_-7" target="WGEKUS04sTv0rBj9BLx_-4">
          <mxGeometry relative="1" as="geometry" />
        </mxCell>
        <mxCell id="WGEKUS04sTv0rBj9BLx_-7" value="" style="ellipse;whiteSpace=wrap;html=1;aspect=fixed;" vertex="1" parent="1">
          <mxGeometry x="380" y="80" width="80" height="80" as="geometry" />
        </mxCell>
        <mxCell id="WGEKUS04sTv0rBj9BLx_-8" value="productservice" style="rounded=1;whiteSpace=wrap;html=1;" vertex="1" parent="1">
          <mxGeometry x="420" y="130" width="60" height="20" as="geometry" />
        </mxCell>
        <mxCell id="WGEKUS04sTv0rBj9BLx_-37" style="edgeStyle=orthogonalEdgeStyle;rounded=0;orthogonalLoop=1;jettySize=auto;html=1;exitX=1;exitY=0;exitDx=0;exitDy=0;entryX=0.289;entryY=0.984;entryDx=0;entryDy=0;entryPerimeter=0;" edge="1" parent="1" source="WGEKUS04sTv0rBj9BLx_-9" target="WGEKUS04sTv0rBj9BLx_-4">
          <mxGeometry relative="1" as="geometry">
            <mxPoint x="388" y="320" as="targetPoint" />
            <Array as="points">
              <mxPoint x="388" y="386" />
              <mxPoint x="389" y="319" />
            </Array>
          </mxGeometry>
        </mxCell>
        <mxCell id="WGEKUS04sTv0rBj9BLx_-9" value="" style="ellipse;whiteSpace=wrap;html=1;aspect=fixed;" vertex="1" parent="1">
          <mxGeometry x="320" y="440" width="80" height="80" as="geometry" />
        </mxCell>
        <mxCell id="WGEKUS04sTv0rBj9BLx_-10" value="robotControl" style="rounded=1;whiteSpace=wrap;html=1;" vertex="1" parent="1">
          <mxGeometry x="360" y="490" width="60" height="20" as="geometry" />
        </mxCell>
        <mxCell id="WGEKUS04sTv0rBj9BLx_-11" value="" style="ellipse;whiteSpace=wrap;html=1;aspect=fixed;" vertex="1" parent="1">
          <mxGeometry x="520" y="440" width="80" height="80" as="geometry" />
        </mxCell>
        <mxCell id="WGEKUS04sTv0rBj9BLx_-12" value="cargoHold" style="rounded=1;whiteSpace=wrap;html=1;" vertex="1" parent="1">
          <mxGeometry x="560" y="490" width="60" height="20" as="geometry" />
        </mxCell>
        <mxCell id="WGEKUS04sTv0rBj9BLx_-15" value="Sonar rileva un prodotto legale e registrato, caso ottimo" style="text;html=1;align=center;verticalAlign=middle;whiteSpace=wrap;rounded=0;" vertex="1" parent="1">
          <mxGeometry x="40" y="40" width="220" height="30" as="geometry" />
        </mxCell>
        <mxCell id="WGEKUS04sTv0rBj9BLx_-18" value="1. Request To Load" style="text;html=1;align=center;verticalAlign=middle;whiteSpace=wrap;rounded=0;" vertex="1" parent="1">
          <mxGeometry x="550" y="130" width="100" height="30" as="geometry" />
        </mxCell>
        <mxCell id="WGEKUS04sTv0rBj9BLx_-23" value="4. esito positivo -&amp;gt; ok" style="text;html=1;align=center;verticalAlign=middle;whiteSpace=wrap;rounded=0;" vertex="1" parent="1">
          <mxGeometry x="680" y="120" width="120" height="30" as="geometry" />
        </mxCell>
        <mxCell id="WGEKUS04sTv0rBj9BLx_-25" value="2. slot libero? peso ok? PID" style="text;html=1;align=center;verticalAlign=middle;whiteSpace=wrap;rounded=0;" vertex="1" parent="1">
          <mxGeometry x="540" y="340" width="100" height="30" as="geometry" />
        </mxCell>
        <mxCell id="WGEKUS04sTv0rBj9BLx_-27" value="3. SlotX liber e assegnato a PID" style="text;html=1;align=center;verticalAlign=middle;whiteSpace=wrap;rounded=0;" vertex="1" parent="1">
          <mxGeometry x="670" y="410" width="100" height="30" as="geometry" />
        </mxCell>
        <mxCell id="WGEKUS04sTv0rBj9BLx_-30" style="edgeStyle=orthogonalEdgeStyle;rounded=0;orthogonalLoop=1;jettySize=auto;html=1;exitX=1;exitY=0;exitDx=0;exitDy=0;entryX=0.744;entryY=1.033;entryDx=0;entryDy=0;entryPerimeter=0;" edge="1" parent="1" source="WGEKUS04sTv0rBj9BLx_-11" target="WGEKUS04sTv0rBj9BLx_-4">
          <mxGeometry relative="1" as="geometry" />
        </mxCell>
        <mxCell id="WGEKUS04sTv0rBj9BLx_-31" value="5. T arrivo prodotto alla porta" style="text;html=1;align=center;verticalAlign=middle;whiteSpace=wrap;rounded=0;" vertex="1" parent="1">
          <mxGeometry x="360" y="240" width="140" height="30" as="geometry" />
        </mxCell>
        <mxCell id="WGEKUS04sTv0rBj9BLx_-35" value="6. Prodotto alla porta, inserisci in slotX" style="text;html=1;align=center;verticalAlign=middle;whiteSpace=wrap;rounded=0;" vertex="1" parent="1">
          <mxGeometry x="230" y="340" width="140" height="30" as="geometry" />
        </mxCell>
        <mxCell id="WGEKUS04sTv0rBj9BLx_-38" value="7. Fatto, torno a HOME" style="text;html=1;align=center;verticalAlign=middle;whiteSpace=wrap;rounded=0;" vertex="1" parent="1">
          <mxGeometry x="390" y="320" width="140" height="30" as="geometry" />
        </mxCell>
        <mxCell id="f1D6WuZxMdPs2gHAFTNx-1" value="" style="ellipse;whiteSpace=wrap;html=1;aspect=fixed;" vertex="1" parent="1">
          <mxGeometry x="790" y="240" width="80" height="80" as="geometry" />
        </mxCell>
        <mxCell id="f1D6WuZxMdPs2gHAFTNx-2" value="gui" style="rounded=1;whiteSpace=wrap;html=1;" vertex="1" parent="1">
          <mxGeometry x="830" y="290" width="60" height="20" as="geometry" />
        </mxCell>
        <mxCell id="f1D6WuZxMdPs2gHAFTNx-4" value="8. Aggiorna" style="text;html=1;align=center;verticalAlign=middle;whiteSpace=wrap;rounded=0;" vertex="1" parent="1">
          <mxGeometry x="690" y="250" width="120" height="30" as="geometry" />
        </mxCell>
      </root>
    </mxGraphModel>
  </diagram>
</mxfile>
